<?xml version="1.0" encoding="UTF-8"?>
<svg width="1200pt" height="1200pt" version="1.1" viewBox="0 0 1200 1200" xmlns="http://www.w3.org/2000/svg">
 <path d="m600 0c-330.82 0-600 269.18-600 600s269.18 600 600 600 600-269.18 600-600-269.18-600-600-600zm0 641.56c-22.988 0-41.559-18.695-41.559-41.559s18.695-41.559 41.559-41.559zm0-106.99c-36 0-65.305 29.305-65.305 65.305s29.305 65.305 65.305 65.305v83.117c-81.852 0-148.55-66.57-148.55-148.55 0-81.98 66.57-148.55 148.55-148.55zm0-106.99c-94.988 0-172.29 77.305-172.29 172.29s77.305 172.29 172.29 172.29v83.117c-140.84 0-255.41-114.57-255.41-255.41 0-140.84 114.57-255.41 255.41-255.41zm0-106.99c-153.98 0-279.16 125.3-279.16 279.16s125.3 279.16 279.16 279.16v83.117c-199.83 0-362.4-162.57-362.4-362.4 0-199.83 162.57-362.4 362.4-362.4zm0-106.99c-212.97 0-386.15 173.18-386.15 386.15s173.18 386.15 386.15 386.15v83.117c-258.82 0-469.26-210.57-469.26-469.26 0-258.71 210.44-469.02 469.26-469.02v83.117zm0-106.99c-271.83 0.37109-493.01 221.55-493.01 493.38s221.18 493.01 493.01 493.01v83.117c-317.68 0.125-576.25-258.45-576.25-576.13s258.57-576.25 576.25-576.25v83.117z"/>
</svg>
